# xmcd CD database file
#
# Track frame offsets:
#	150
#	10299
#	17460
#	37237
#	39762
#	44347
#	61447
#	73167
#	83297
#	89245
#	100077
#	115695
#	134600
#	139380
#	149410
#	159872
#	168365
#	190750
#	198675
#
# Disc length: 2825 seconds
#
# Revision: 0
# Processed by: cddbd v1.5.1PL0 Copyright (c) Steve Scherf et al.
# Submitted via: CDex 1.51
#
DISCID=090b0713
DTITLE=Astrid Seriese and Peter Meuris - Condemned
DYEAR=1995
DGENRE=Jazz
TTITLE0=Down down down (heavy)
TTITLE1=Lion of Kanga
TTITLE2=Daily breath
TTITLE3=Bad boys
TTITLE4=Throat
TTITLE5=Meantime
TTITLE6=Scared
TTITLE7=Making whoopee
TTITLE8=Going to the chapel
TTITLE9=Down down down (bluesy)
TTITLE10=First pee, then use
TTITLE11=Home back home, motherless child
TTITLE12=Kippenhok (instrumental)
TTITLE13=Meantime
TTITLE14=Car
TTITLE15=Distress bass
TTITLE16=Stay
TTITLE17=I put aspell on you
TTITLE18=Meantime
EXTD=YEAR: 1995
EXTT0=
EXTT1=
EXTT2=
EXTT3=
EXTT4=
EXTT5=
EXTT6=
EXTT7=
EXTT8=
EXTT9=
EXTT10=
EXTT11=
EXTT12=
EXTT13=
EXTT14=
EXTT15=
EXTT16=
EXTT17=
EXTT18=
PLAYORDER=
